# xmcd
#
# Track frame offsets:
#	150
#	20823
#	40165
#	58536
#	78188
#
# Disc length: 1329 seconds
#
# Revision: 0
# Processed by: cddbd v1.5.2PL0 Copyright (c) Steve Scherf et al.
# Submitted via: EasyCDDAExtractor 11.1.0.1
#
DISCID=35052f05
DTITLE=Various Artist - Lady Pank
DYEAR=1900
DGENRE=
TTITLE0=ja - ja1
TTITLE1=ja2 - ja3
TTITLE2=ja4 - Tytuł utworu 3
TTITLE3=Wykonawca utworu 4 - Tytuł utworu 4
TTITLE4=Wykonawca utworu 5 - Tytuł utworu 5
EXTD=
EXTT0=
EXTT1=
EXTT2=
EXTT3=
EXTT4=
PLAYORDER=
